<?xml version="1.0" encoding="iso-8859-1"?>
<!-- Uploaded to: SVG Repo, www.svgrepo.com, Generator: SVG Repo Mixer Tools -->
<svg height="800px" width="800px" version="1.1" id="Layer_1" xmlns="http://www.w3.org/2000/svg" xmlns:xlink="http://www.w3.org/1999/xlink" 
	 viewBox="0 0 512.001 512.001" xml:space="preserve">
<path style="fill:#C0AB91;" d="M290.741,374.713l-6.22-10.107l-39.866-64.785l-13.653-22.184l-13.652-22.184l-50.136-81.469
	c-4.233-6.878-11.728-11.069-19.805-11.075c-0.005,0-0.009,0-0.016,0c-8.082,0-15.585,4.192-19.819,11.075L3.453,375.683
	c-4.42,7.18-4.61,16.19-0.496,23.55c4.115,7.357,11.885,11.919,20.317,11.919h124.137h124.106h0.029
	c12.854,0,23.273-10.42,23.273-23.273C294.819,382.992,293.314,378.457,290.741,374.713z"/>
<g>
	<path style="fill:#A78966;" d="M147.395,162.91c-8.082,0-15.585,4.192-19.819,11.075L3.455,375.681
		c-4.42,7.18-4.61,16.19-0.496,23.55c4.113,7.359,11.883,11.92,20.316,11.92h124.137V162.91
		C147.405,162.91,147.4,162.91,147.395,162.91z"/>
	<path style="fill:#A78966;" d="M508.529,375.649L345.62,111.891c-3.609-5.843-9.579-9.731-16.254-10.76
		c-1.165-0.18-2.347-0.282-3.547-0.282c-8.068,0-15.56,4.178-19.8,11.042L217.35,255.453l13.652,22.184l13.653,22.184l39.866,64.787
		l6.22,10.107c2.572,3.744,4.079,8.279,4.079,13.166c0,12.853-10.418,23.273-23.273,23.273h57.82h159.361
		c8.437,0,16.215-4.568,20.326-11.937C513.163,391.845,512.963,382.829,508.529,375.649z"/>
</g>
<path style="fill:#806749;" d="M325.819,100.849c-8.068,0-15.56,4.178-19.8,11.042L217.35,255.453l13.652,22.184l13.653,22.184
	l39.866,64.787l6.22,10.107c2.572,3.744,4.079,8.279,4.079,13.166c0,12.853-10.418,23.273-23.273,23.273h57.82V101.131
	C328.201,100.951,327.019,100.849,325.819,100.849z"/>
</svg>