<?xml version="1.0" encoding="iso-8859-1"?>
<!-- Uploaded to: SVG Repo, www.svgrepo.com, Generator: SVG Repo Mixer Tools -->
<svg height="800px" width="800px" version="1.1" id="Layer_1" xmlns="http://www.w3.org/2000/svg" xmlns:xlink="http://www.w3.org/1999/xlink" 
	 viewBox="0 0 511.996 511.996" xml:space="preserve">
<g>
	<path style="fill:#F4D99D;" d="M297.765,58.501c1.563-4.546,2.392-9.428,2.375-14.539c-0.088-21.548-16.516-40.589-37.862-43.529
		C235.107-3.31,211.864,17.7,211.864,44.13c0,5.12,0.847,10.01,2.428,14.557c4.378,12.553,6.4,25.988,3.081,38.868
		c-6.612,25.653-22.387,43.679-40.819,43.679H335.45c-18.432,0-34.207-18.017-40.819-43.67
		C291.294,84.622,293.422,71.142,297.765,58.501"/>
	<path style="fill:#B0D3F0;" d="M141.24,361.927v114.759c0,19.5,15.81,35.31,35.31,35.31h158.897c19.5,0,35.31-15.81,35.31-35.31
		V361.927H141.24z"/>
	<polygon style="fill:#8697CB;" points="141.24,361.93 370.757,361.93 370.757,211.861 141.24,211.861 	"/>
	<path style="fill:#26B99A;" d="M388.412,211.858H123.584V167.72c0-14.627,11.855-26.483,26.483-26.483h211.862
		c14.627,0,26.483,11.855,26.483,26.483V211.858z"/>
	<path style="fill:#D6B772;" d="M264.826,35.307c0,4.873-3.955,8.828-8.828,8.828c-4.873,0-8.828-3.955-8.828-8.828
		s3.955-8.828,8.828-8.828C260.871,26.479,264.826,30.434,264.826,35.307"/>
	<g>
		<path style="fill:#5F72A0;" d="M176.55,282.479c4.873,0,8.828-3.955,8.828-8.828c0-4.873-3.955-8.828-8.828-8.828h-35.31v17.655
			H176.55z"/>
		<path style="fill:#5F72A0;" d="M194.205,326.617c4.873,0,8.828-3.955,8.828-8.828s-3.955-8.828-8.828-8.828H141.24v17.655H194.205
			z"/>
	</g>
	<g>
		<path style="fill:#8697CB;" d="M194.205,414.893c4.873,0,8.828-3.955,8.828-8.828c0-4.873-3.955-8.828-8.828-8.828H141.24v17.655
			H194.205z"/>
		<path style="fill:#8697CB;" d="M176.55,459.031c4.873,0,8.828-3.955,8.828-8.828s-3.955-8.828-8.828-8.828h-35.31v17.655H176.55z"
			/>
	</g>
</g>
</svg>