<?xml version="1.0" encoding="iso-8859-1"?>
<!-- Uploaded to: SVG Repo, www.svgrepo.com, Generator: SVG Repo Mixer Tools -->
<svg height="800px" width="800px" version="1.1" id="Layer_1" xmlns="http://www.w3.org/2000/svg" xmlns:xlink="http://www.w3.org/1999/xlink" 
	 viewBox="0 0 512 512" xml:space="preserve">
<circle style="fill:#EEEEEE;" cx="256" cy="256" r="224.266"/>
<path style="fill:#BDBDBD;" d="M256,31.728v448.544c123.862,0,224.272-100.411,224.272-224.272S379.862,31.728,256,31.728z"/>
<path style="fill:#FAFAFA;" d="M256,0C114.509,0,0,114.497,0,256c0,141.49,114.497,256,256,256c141.491,0,256-114.497,256-256
	C512,114.51,397.503,0,256,0z M256,452.465c-108.332,0-196.465-88.134-196.465-196.465S147.668,59.535,256,59.535
	S452.465,147.668,452.465,256S364.332,452.465,256,452.465z"/>
<g>
	<path style="fill:#80D8FF;" d="M256,347.653c-50.538,0-91.653-41.115-91.653-91.653c0-28.598,13.68-55.976,36.594-73.238
		c7.88-5.934,19.078-4.359,25.012,3.52c5.935,7.88,4.359,19.077-3.519,25.013c-14.215,10.707-22.367,27.002-22.367,44.706
		c0,30.842,25.091,55.932,55.932,55.932s55.932-25.091,55.932-55.932c0-17.705-8.153-34-22.369-44.708
		c-7.879-5.935-9.455-17.132-3.521-25.012c5.935-7.881,17.133-9.454,25.012-3.521c22.918,17.262,36.6,44.641,36.6,73.241
		C347.653,306.539,306.538,347.653,256,347.653z"/>
	<path style="fill:#80D8FF;" d="M256,241.861c-9.864,0-17.86-7.997-17.86-17.86V161.98c0-9.864,7.997-17.86,17.86-17.86
		c9.864,0,17.86,7.997,17.86,17.86v62.021C273.86,233.865,265.864,241.861,256,241.861z"/>
</g>
<path style="fill:#EEEEEE;" d="M256,0v59.535c108.332,0,196.465,88.134,196.465,196.465S364.332,452.465,256,452.465V512
	c141.491,0,256-114.497,256-256C512,114.51,397.503,0,256,0z"/>
<g>
	<path style="fill:#40C4FF;" d="M311.054,182.759c-7.879-5.934-19.077-4.359-25.012,3.521c-5.935,7.88-4.358,19.077,3.521,25.012
		C303.779,222,311.932,238.295,311.932,256c0,30.842-25.091,55.932-55.932,55.932v35.721c50.538,0,91.653-41.115,91.653-91.653
		C347.653,227.4,333.971,200.021,311.054,182.759z"/>
	<path style="fill:#40C4FF;" d="M256,144.12v97.742c9.864,0,17.86-7.997,17.86-17.86V161.98
		C273.86,152.116,265.864,144.12,256,144.12z"/>
</g>
</svg>