<?xml version="1.0" encoding="iso-8859-1"?>
<!-- Uploaded to: SVG Repo, www.svgrepo.com, Generator: SVG Repo Mixer Tools -->
<svg version="1.1" id="Layer_1" xmlns="http://www.w3.org/2000/svg" xmlns:xlink="http://www.w3.org/1999/xlink" 
	 viewBox="0 0 512 512" xml:space="preserve">
<path style="fill:#72CCC5;" d="M21.333,375.467c0-21.527,29.676-74.575,43.842-98.67c3.301-5.616,11.414-5.616,14.716,0
	c14.166,24.095,43.842,77.142,43.842,98.67c0,28.277-22.923,51.2-51.2,51.2S21.333,403.744,21.333,375.467z"/>
<path style="fill:#11BBA3;" d="M81.067,409.6c-28.277,0-51.2-22.923-51.2-51.2c0-10.244,6.724-27.627,15.295-45.63
	c-12.183,23.358-23.828,49.211-23.828,62.697c0,28.277,22.923,51.2,51.2,51.2c23.439,0,43.184-15.756,49.26-37.249
	C112.439,401.681,97.681,409.6,81.067,409.6z"/>
<circle style="fill:#8FDED7;" cx="89.6" cy="349.867" r="17.067"/>
<path style="fill:#D1CDB2;" d="M209.6,0C120.199,0,47.467,72.733,47.467,162.133v34.133c0,14.115,11.485,25.6,25.6,25.6
	s25.6-11.485,25.6-25.6v-34.133C98.667,100.964,148.431,51.2,209.6,51.2s110.933,49.764,110.933,110.933v204.8
	c0,14.115,11.485,25.6,25.6,25.6s25.6-11.485,25.6-25.6v-204.8C371.733,72.733,299.001,0,209.6,0z"/>
<path style="fill:#E8E6D9;" d="M106.667,238.933H38.4c-4.713,0-8.533-3.821-8.533-8.533v-34.133c0-4.713,3.821-8.533,8.533-8.533
	h68.267c4.713,0,8.533,3.821,8.533,8.533V230.4C115.2,235.113,111.379,238.933,106.667,238.933z"/>
<path style="fill:#BAB48C;" d="M38.4,187.733c-4.713,0-8.533,3.821-8.533,8.533V230.4c0,4.713,3.821,8.533,8.533,8.533h8.533v-51.2
	H38.4z"/>
<g>
	<rect x="46.933" y="187.733" style="fill:#D1CDB2;" width="25.955" height="51.2"/>
	<path style="fill:#D1CDB2;" d="M106.667,187.733H89.955v51.2h16.711c4.713,0,8.533-3.821,8.533-8.533v-34.133
		C115.2,191.554,111.379,187.733,106.667,187.733z"/>
</g>
<path style="fill:#E8E6D9;" d="M440.931,391.069l-71.195,71.195c-13.33,13.33-34.942,13.33-48.272,0l-71.195-71.195
	c-13.33-13.33-13.33-34.942,0-48.272l71.195-71.195c13.33-13.33,34.942-13.33,48.272,0l71.195,71.195
	C454.26,356.127,454.26,377.74,440.931,391.069z"/>
<path style="fill:#D1CDB2;" d="M345.6,455.195c-4.558,0-8.845-1.775-12.067-4.998l-71.196-71.196
	c-3.222-3.222-4.998-7.509-4.998-12.067c0-4.558,1.775-8.845,4.998-12.067l71.196-71.196c3.222-3.222,7.509-4.998,12.067-4.998
	c4.558,0,8.845,1.775,12.067,4.998l71.196,71.196c3.222,3.222,4.998,7.509,4.998,12.067c0,4.558-1.775,8.845-4.998,12.067
	l-71.196,71.196C354.445,453.42,350.158,455.195,345.6,455.195z"/>
<circle style="fill:#DDDAC5;" cx="345.6" cy="366.933" r="59.733"/>
<circle style="fill:#FFC552;" cx="345.6" cy="366.933" r="51.2"/>
<circle style="fill:#FC9C47;" cx="345.6" cy="366.933" r="34.133"/>
<path style="fill:#8FDED7;" d="M390.931,229.092c-4.474-1.475-9.3,0.963-10.771,5.442c-1.472,4.477,0.964,9.3,5.442,10.771
	c52.635,17.3,87.998,66.179,87.998,121.628c0,70.579-57.421,128-128,128s-128-57.421-128-128c0-20.333,4.763-40.073,13.845-57.926
	l3.387,16.933c0.924,4.617,5.591,7.67,10.191,6.661c4.485-0.985,7.445-5.503,6.544-10.009l-8.533-42.667
	c-1.028-5.146-6.655-8.203-11.537-6.249l-42.667,17.067c-4.375,1.75-6.505,6.717-4.754,11.091c1.749,4.378,6.716,6.506,11.092,4.754
	l23.148-9.259c-11.655,21.26-17.782,45.053-17.782,69.602C200.533,446.923,265.611,512,345.6,512s145.067-65.077,145.067-145.067
	C490.667,304.095,450.587,248.7,390.931,229.092z"/>
</svg>